# xmcd CD database file
#
# Track frame offsets:
#	150
#	50935
#	71910
#	97597
#	133563
#	150877
#	183219
#	202795
#	255813
#
# Disc length: 3714 seconds
#
# Revision: 0
# Processed by: cddbd v1.5.1PL2 Copyright (c) Steve Scherf et al.
# Submitted via: CDex 1.51
#
DISCID=670e8009
DTITLE=Gaurangi - Best of Gaurangi
DYEAR=1900
DGENRE=New Age
TTITLE0=Radhe
TTITLE1=Beautiful
TTITLE2=Lord of the Universe
TTITLE3=The way I found her
TTITLE4=Exile
TTITLE5=Chasing the Sun
TTITLE6=Guiding Star
TTITLE7=Nitai
TTITLE8=Shyam
EXTD=
EXTT0=
EXTT1=
EXTT2=
EXTT3=
EXTT4=
EXTT5=
EXTT6=
EXTT7=
EXTT8=
PLAYORDER=
